# This file uses centimeters as units for non-parametric coordinates.

mtllib Building_Blank.mtl
g default
v -0.500000 0.000000 12.500000
v 0.500000 0.000000 12.500000
v -0.500000 30.000004 12.500000
v 0.500000 30.000004 12.500000
v -0.500000 30.000004 -12.500000
v 0.500000 30.000004 -12.500000
v -0.500000 0.000000 -12.500000
v 0.500000 0.000000 -12.500000
v 0.500000 1.560591 12.500000
v -0.500000 1.560591 12.500000
v -0.500000 1.560591 -12.500000
v 0.500000 1.560591 -12.500000
v 0.621903 0.000000 -12.500000
v 0.621903 0.000000 12.500000
v 0.621903 1.480433 -12.500000
v 0.621903 1.480433 12.500000
vt 0.375000 0.000000
vt 0.625000 0.000000
vt 0.375000 0.250000
vt 0.625000 0.250000
vt 0.375000 0.500000
vt 0.625000 0.500000
vt 0.375000 0.750000
vt 0.625000 0.750000
vt 0.375000 1.000000
vt 0.625000 1.000000
vt 0.875000 0.000000
vt 0.875000 0.250000
vt 0.125000 0.000000
vt 0.125000 0.250000
vt 0.625000 0.014816
vt 0.375000 0.014816
vt 0.125000 0.014816
vt 0.375000 0.735184
vt 0.625000 0.735184
vt 0.875000 0.014816
vt 0.625000 0.000000
vt 0.875000 0.000000
vt 0.875000 0.014816
vt 0.625000 0.014816
vn 0.000000 0.000000 1.000000
vn 0.000000 0.000000 1.000000
vn 0.000000 0.000000 1.000000
vn 0.000000 0.000000 1.000000
vn 0.000000 1.000000 0.000000
vn 0.000000 1.000000 0.000000
vn 0.000000 1.000000 0.000000
vn 0.000000 1.000000 0.000000
vn 0.000000 0.000000 -1.000000
vn 0.000000 0.000000 -1.000000
vn 0.000000 0.000000 -1.000000
vn 0.000000 0.000000 -1.000000
vn 0.000000 -1.000000 0.000000
vn 0.000000 -1.000000 0.000000
vn 0.000000 -1.000000 0.000000
vn 0.000000 -1.000000 0.000000
vn 1.000000 0.000000 0.000000
vn 1.000000 0.000000 0.000000
vn 1.000000 0.000000 0.000000
vn 1.000000 0.000000 0.000000
vn -1.000000 0.000000 0.000000
vn -1.000000 0.000000 0.000000
vn -1.000000 0.000000 0.000000
vn -1.000000 0.000000 0.000000
vn 0.000000 0.000000 1.000000
vn 0.000000 0.000000 1.000000
vn -1.000000 0.000000 0.000000
vn -1.000000 0.000000 0.000000
vn 0.000000 0.000000 -1.000000
vn 0.000000 0.000000 -1.000000
vn 1.000000 0.000000 0.000000
vn 1.000000 0.000000 0.000000
vn 1.000000 0.000000 0.000000
vn 1.000000 0.000000 0.000000
vn 0.000000 -1.000000 0.000000
vn 0.000000 -1.000000 0.000000
vn 0.000000 0.000000 -1.000000
vn 0.000000 0.000000 -1.000000
vn 0.549418 0.835548 0.000000
vn 0.549418 0.835548 0.000000
vn 0.549418 0.835548 0.000000
vn 0.549418 0.835548 0.000000
vn 0.000000 0.000000 1.000000
vn 0.000000 0.000000 1.000000
s 1
g pCube1
usemtl initialShadingGroup
f 1/1/1 2/2/2 9/15/3 10/16/4
s off
f 3/3/5 4/4/6 6/6/7 5/5/8
s 2
f 11/18/9 12/19/10 8/8/11 7/7/12
s 3
f 7/7/13 8/8/14 2/10/15 1/9/16
s off
f 14/21/17 13/22/18 15/23/19 16/24/20
s 4
f 7/13/21 1/1/22 10/16/23 11/17/24
s 1
f 10/16/4 9/15/3 4/4/25 3/3/26
s 4
f 11/17/24 10/16/23 3/3/27 5/14/28
s 2
f 5/5/29 6/6/30 12/19/10 11/18/9
s off
f 9/15/31 12/20/32 6/12/33 4/4/34
s 3
f 2/2/15 8/11/14 13/22/35 14/21/36
s 2
f 8/11/11 12/20/10 15/23/37 13/22/38
s off
f 12/20/39 9/15/40 16/24/41 15/23/42
s 1
f 9/15/3 2/2/2 14/21/43 16/24/44
