# This file uses centimeters as units for non-parametric coordinates.

mtllib backDoor_Hinges.mtl
g default
v 526.747850 38.238166 -6.877625
v 527.606844 38.238166 -5.680707
v 526.747850 42.116836 -6.877625
v 527.606844 42.116836 -5.680707
v 526.747850 42.116836 -7.130769
v 527.844703 42.116836 -5.594075
v 526.747850 38.238166 -7.130769
v 527.844703 38.238166 -5.594075
v 527.795954 42.116836 -6.809177
v 527.826157 42.116836 -7.047177
v 527.826157 38.238166 -7.047177
v 527.795954 38.238166 -6.809177
v 527.887914 42.116836 -6.700073
v 528.132563 42.116836 -6.723766
v 528.132563 38.238166 -6.723766
v 527.887914 38.238166 -6.700073
vt 0.375000 0.000000
vt 0.625000 0.000000
vt 0.375000 0.250000
vt 0.625000 0.250000
vt 0.375000 0.500000
vt 0.625000 0.500000
vt 0.375000 0.750000
vt 0.625000 0.750000
vt 0.375000 1.000000
vt 0.625000 1.000000
vt 0.875000 0.000000
vt 0.875000 0.250000
vt 0.125000 0.000000
vt 0.125000 0.250000
vt 0.489960 0.250000
vt 0.489960 0.500000
vt 0.489960 0.750000
vt 0.489960 0.000000
vt 0.489960 1.000000
vt 0.516903 0.250000
vt 0.516903 0.500000
vt 0.516903 0.750000
vt 0.516903 0.000000
vt 0.516903 1.000000
vn -0.065168 0.000000 0.997874
vn -0.153884 0.000000 0.988089
vn -0.153884 0.000000 0.988089
vn -0.065168 0.000000 0.997874
vn 0.000000 1.000000 0.000000
vn 0.000000 1.000000 -0.000000
vn 0.000000 1.000000 -0.000000
vn 0.000000 1.000000 0.000000
vn 0.077290 0.000000 -0.997009
vn 0.281997 0.000000 -0.959415
vn 0.281997 0.000000 -0.959415
vn 0.077290 0.000000 -0.997009
vn 0.000000 -1.000000 0.000000
vn 0.000000 -1.000000 -0.000000
vn 0.000000 -1.000000 -0.000000
vn 0.000000 -1.000000 0.000000
vn -0.342223 0.000000 0.939619
vn -0.342223 0.000000 0.939619
vn -0.342223 0.000000 0.939619
vn -0.342223 0.000000 0.939619
vn -1.000000 0.000000 0.000000
vn -1.000000 0.000000 0.000000
vn -1.000000 0.000000 0.000000
vn -1.000000 0.000000 0.000000
vn 0.000000 1.000000 -0.000000
vn 0.000000 1.000000 -0.000000
vn 0.999919 0.000000 -0.012762
vn 0.999919 0.000000 -0.012762
vn 0.000000 -1.000000 -0.000000
vn 0.000000 -1.000000 -0.000000
vn -0.986247 0.000000 -0.165276
vn -0.986247 0.000000 -0.165276
vn 0.000000 1.000000 0.000000
vn 0.000000 1.000000 0.000000
vn 0.969035 0.000000 0.246923
vn 0.969035 0.000000 0.246923
vn 0.000000 -1.000000 0.000000
vn 0.000000 -1.000000 0.000000
vn -0.964025 0.000000 -0.265811
vn -0.964025 0.000000 -0.265811
s 1
g pCube1
usemtl initialShadingGroup
f 1/1/1 12/18/2 9/15/3 3/3/4
s 2
f 3/3/5 9/15/6 10/16/7 5/5/8
s 3
f 5/5/9 10/16/10 11/17/11 7/7/12
s 4
f 7/7/13 11/17/14 12/19/15 1/9/16
s off
f 2/2/17 8/11/18 6/12/19 4/4/20
f 7/13/21 1/1/22 3/3/23 5/14/24
s 2
f 9/15/6 13/20/25 14/21/26 10/16/7
s 3
f 11/17/11 10/16/10 14/21/27 15/22/28
s 4
f 12/19/15 11/17/14 15/22/29 16/24/30
s 1
f 9/15/3 12/18/2 16/23/31 13/20/32
s 2
f 13/20/25 4/4/33 6/6/34 14/21/26
s 3
f 15/22/28 14/21/27 6/6/35 8/8/36
s 4
f 16/24/30 15/22/29 8/8/37 2/10/38
s 1
f 13/20/32 16/23/31 2/2/39 4/4/40
g default
v 526.747850 15.810856 -6.877625
v 527.606844 15.810856 -5.680707
v 526.747850 19.689527 -6.877625
v 527.606844 19.689527 -5.680707
v 526.747850 19.689527 -7.130769
v 527.844703 19.689527 -5.594075
v 526.747850 15.810856 -7.130769
v 527.844703 15.810856 -5.594075
v 527.795954 19.689527 -6.809177
v 527.826157 19.689527 -7.047177
v 527.826157 15.810856 -7.047177
v 527.795954 15.810856 -6.809177
v 527.887914 19.689527 -6.700073
v 528.132563 19.689527 -6.723766
v 528.132563 15.810856 -6.723766
v 527.887914 15.810856 -6.700073
vt 0.375000 0.000000
vt 0.625000 0.000000
vt 0.375000 0.250000
vt 0.625000 0.250000
vt 0.375000 0.500000
vt 0.625000 0.500000
vt 0.375000 0.750000
vt 0.625000 0.750000
vt 0.375000 1.000000
vt 0.625000 1.000000
vt 0.875000 0.000000
vt 0.875000 0.250000
vt 0.125000 0.000000
vt 0.125000 0.250000
vt 0.489960 0.250000
vt 0.489960 0.500000
vt 0.489960 0.750000
vt 0.489960 0.000000
vt 0.489960 1.000000
vt 0.516903 0.250000
vt 0.516903 0.500000
vt 0.516903 0.750000
vt 0.516903 0.000000
vt 0.516903 1.000000
vn -0.065168 0.000000 0.997874
vn -0.153884 0.000000 0.988089
vn -0.153884 0.000000 0.988089
vn -0.065168 0.000000 0.997874
vn 0.000000 1.000000 0.000000
vn 0.000000 1.000000 -0.000000
vn 0.000000 1.000000 -0.000000
vn 0.000000 1.000000 0.000000
vn 0.077290 0.000000 -0.997009
vn 0.281997 0.000000 -0.959415
vn 0.281997 0.000000 -0.959415
vn 0.077290 0.000000 -0.997009
vn 0.000000 -1.000000 0.000000
vn 0.000000 -1.000000 -0.000000
vn 0.000000 -1.000000 -0.000000
vn 0.000000 -1.000000 0.000000
vn -0.342223 0.000000 0.939619
vn -0.342223 0.000000 0.939619
vn -0.342223 0.000000 0.939619
vn -0.342223 0.000000 0.939619
vn -1.000000 0.000000 0.000000
vn -1.000000 0.000000 0.000000
vn -1.000000 0.000000 0.000000
vn -1.000000 0.000000 0.000000
vn 0.000000 1.000000 -0.000000
vn 0.000000 1.000000 -0.000000
vn 0.999919 0.000000 -0.012762
vn 0.999919 0.000000 -0.012762
vn 0.000000 -1.000000 -0.000000
vn 0.000000 -1.000000 -0.000000
vn -0.986247 0.000000 -0.165276
vn -0.986247 0.000000 -0.165276
vn 0.000000 1.000000 0.000000
vn 0.000000 1.000000 0.000000
vn 0.969035 0.000000 0.246923
vn 0.969035 0.000000 0.246923
vn 0.000000 -1.000000 0.000000
vn 0.000000 -1.000000 0.000000
vn -0.964025 0.000000 -0.265811
vn -0.964025 0.000000 -0.265811
s 1
g pCube2
usemtl initialShadingGroup
f 17/25/41 28/42/42 25/39/43 19/27/44
s 2
f 19/27/45 25/39/46 26/40/47 21/29/48
s 3
f 21/29/49 26/40/50 27/41/51 23/31/52
s 4
f 23/31/53 27/41/54 28/43/55 17/33/56
s off
f 18/26/57 24/35/58 22/36/59 20/28/60
f 23/37/61 17/25/62 19/27/63 21/38/64
s 2
f 25/39/46 29/44/65 30/45/66 26/40/47
s 3
f 27/41/51 26/40/50 30/45/67 31/46/68
s 4
f 28/43/55 27/41/54 31/46/69 32/48/70
s 1
f 25/39/43 28/42/42 32/47/71 29/44/72
s 2
f 29/44/65 20/28/73 22/30/74 30/45/66
s 3
f 31/46/68 30/45/67 22/30/75 24/32/76
s 4
f 32/48/70 31/46/69 24/32/77 18/34/78
s 1
f 29/44/72 32/47/71 18/26/79 20/28/80
g default
v 526.747850 -8.292367 -6.877625
v 527.606844 -8.292367 -5.680707
v 526.747850 -4.413696 -6.877625
v 527.606844 -4.413696 -5.680707
v 526.747850 -4.413696 -7.130769
v 527.844703 -4.413696 -5.594075
v 526.747850 -8.292367 -7.130769
v 527.844703 -8.292367 -5.594075
v 527.795954 -4.413696 -6.809177
v 527.826157 -4.413696 -7.047177
v 527.826157 -8.292367 -7.047177
v 527.795954 -8.292367 -6.809177
v 527.887914 -4.413696 -6.700073
v 528.132563 -4.413696 -6.723766
v 528.132563 -8.292367 -6.723766
v 527.887914 -8.292367 -6.700073
vt 0.375000 0.000000
vt 0.625000 0.000000
vt 0.375000 0.250000
vt 0.625000 0.250000
vt 0.375000 0.500000
vt 0.625000 0.500000
vt 0.375000 0.750000
vt 0.625000 0.750000
vt 0.375000 1.000000
vt 0.625000 1.000000
vt 0.875000 0.000000
vt 0.875000 0.250000
vt 0.125000 0.000000
vt 0.125000 0.250000
vt 0.489960 0.250000
vt 0.489960 0.500000
vt 0.489960 0.750000
vt 0.489960 0.000000
vt 0.489960 1.000000
vt 0.516903 0.250000
vt 0.516903 0.500000
vt 0.516903 0.750000
vt 0.516903 0.000000
vt 0.516903 1.000000
vn -0.065168 0.000000 0.997874
vn -0.153884 0.000000 0.988089
vn -0.153884 0.000000 0.988089
vn -0.065168 0.000000 0.997874
vn 0.000000 1.000000 0.000000
vn 0.000000 1.000000 -0.000000
vn 0.000000 1.000000 -0.000000
vn 0.000000 1.000000 0.000000
vn 0.077290 0.000000 -0.997009
vn 0.281997 0.000000 -0.959415
vn 0.281997 0.000000 -0.959415
vn 0.077290 0.000000 -0.997009
vn 0.000000 -1.000000 0.000000
vn 0.000000 -1.000000 -0.000000
vn 0.000000 -1.000000 -0.000000
vn 0.000000 -1.000000 0.000000
vn -0.342223 0.000000 0.939619
vn -0.342223 0.000000 0.939619
vn -0.342223 0.000000 0.939619
vn -0.342223 0.000000 0.939619
vn -1.000000 0.000000 0.000000
vn -1.000000 0.000000 0.000000
vn -1.000000 0.000000 0.000000
vn -1.000000 0.000000 0.000000
vn 0.000000 1.000000 -0.000000
vn 0.000000 1.000000 -0.000000
vn 0.999919 0.000000 -0.012762
vn 0.999919 0.000000 -0.012762
vn 0.000000 -1.000000 -0.000000
vn 0.000000 -1.000000 -0.000000
vn -0.986247 0.000000 -0.165276
vn -0.986247 0.000000 -0.165276
vn 0.000000 1.000000 0.000000
vn 0.000000 1.000000 0.000000
vn 0.969035 0.000000 0.246923
vn 0.969035 0.000000 0.246923
vn 0.000000 -1.000000 0.000000
vn 0.000000 -1.000000 0.000000
vn -0.964025 0.000000 -0.265811
vn -0.964025 0.000000 -0.265811
s 1
g pCube3
usemtl initialShadingGroup
f 33/49/81 44/66/82 41/63/83 35/51/84
s 2
f 35/51/85 41/63/86 42/64/87 37/53/88
s 3
f 37/53/89 42/64/90 43/65/91 39/55/92
s 4
f 39/55/93 43/65/94 44/67/95 33/57/96
s off
f 34/50/97 40/59/98 38/60/99 36/52/100
f 39/61/101 33/49/102 35/51/103 37/62/104
s 2
f 41/63/86 45/68/105 46/69/106 42/64/87
s 3
f 43/65/91 42/64/90 46/69/107 47/70/108
s 4
f 44/67/95 43/65/94 47/70/109 48/72/110
s 1
f 41/63/83 44/66/82 48/71/111 45/68/112
s 2
f 45/68/105 36/52/113 38/54/114 46/69/106
s 3
f 47/70/108 46/69/107 38/54/115 40/56/116
s 4
f 48/72/110 47/70/109 40/56/117 34/58/118
s 1
f 45/68/112 48/71/111 34/50/119 36/52/120
