# This file uses centimeters as units for non-parametric coordinates.

mtllib doorCity.mtl
g default
v 0.187404 4.848461 -3.862014
v 0.441849 4.848461 -3.862014
v 0.187404 5.102906 -3.862014
v 0.441849 5.102906 -3.862014
v 0.187404 5.102906 -4.116459
v 0.441849 5.102906 -4.116459
v 0.187404 4.848461 -4.116459
v 0.441849 4.848461 -4.116459
v 0.441849 5.102906 -4.043490
v 0.187404 5.102906 -4.043490
v 0.187404 4.848461 -4.043490
v 0.441849 4.848461 -4.043490
v 0.441849 5.102906 -3.946156
v 0.187404 5.102906 -3.946156
v 0.187404 4.848461 -3.946156
v 0.441849 4.848461 -3.946156
v 0.441849 5.010489 -3.946156
v 0.441849 5.010489 -3.862014
v 0.187404 5.010489 -3.862014
v 0.187404 5.010489 -3.946156
v 0.187404 5.010489 -4.043490
v 0.187404 5.010489 -4.116459
v 0.441849 5.010489 -4.116459
v 0.441849 5.010489 -4.043490
v 0.441849 4.940826 -4.043490
v 0.441849 4.940826 -3.946156
v 0.441849 4.940826 -3.862014
v 0.187404 4.940826 -3.862014
v 0.187404 4.940826 -3.946156
v 0.187404 4.940826 -4.043490
v 0.187404 4.940826 -4.116459
v 0.441849 4.940826 -4.116459
v 0.542303 5.010489 -4.043490
v 0.542303 5.010489 -3.946156
v 0.542303 4.940826 -3.946156
v 0.542303 4.940826 -4.043490
v 0.474546 5.010489 -4.043490
v 0.474546 4.940826 -4.043490
v 0.474546 4.940826 -3.946156
v 0.474546 5.010489 -3.946156
v 0.474546 5.010489 -4.276590
v 0.474546 4.940826 -4.276590
v 0.542303 5.010489 -4.276590
v 0.542303 4.940826 -4.276590
vt 0.375000 0.000000
vt 0.625000 0.000000
vt 0.375000 0.250000
vt 0.625000 0.250000
vt 0.375000 0.500000
vt 0.625000 0.500000
vt 0.375000 0.750000
vt 0.625000 0.750000
vt 0.375000 1.000000
vt 0.625000 1.000000
vt 0.875000 0.000000
vt 0.875000 0.250000
vt 0.125000 0.000000
vt 0.125000 0.250000
vt 0.625000 0.428305
vt 0.803305 0.250000
vt 0.196695 0.250000
vt 0.375000 0.428305
vt 0.196695 0.000000
vt 0.375000 0.821695
vt 0.625000 0.821695
vt 0.803305 0.000000
vt 0.625000 0.332671
vt 0.707671 0.250000
vt 0.292329 0.250000
vt 0.375000 0.332671
vt 0.292329 0.000000
vt 0.375000 0.917329
vt 0.625000 0.917329
vt 0.707671 0.000000
vt 0.707671 0.159197
vt 0.625000 0.159197
vt 0.375000 0.159197
vt 0.292329 0.159197
vt 0.196695 0.159197
vt 0.125000 0.159197
vt 0.375000 0.590803
vt 0.625000 0.590803
vt 0.875000 0.159197
vt 0.803305 0.159197
vt 0.803305 0.090751
vt 0.707671 0.090751
vt 0.625000 0.090751
vt 0.375000 0.090751
vt 0.292329 0.090751
vt 0.196695 0.090751
vt 0.125000 0.090751
vt 0.375000 0.659249
vt 0.625000 0.659249
vt 0.875000 0.090751
vt 0.803305 0.159197
vt 0.707671 0.159197
vt 0.707671 0.090751
vt 0.803305 0.090751
vt 0.803305 0.159197
vt 0.803305 0.090751
vt 0.707671 0.090751
vt 0.707671 0.159197
vt 0.803305 0.090751
vt 0.803305 0.159197
vt 0.803305 0.159197
vt 0.803305 0.090751
vn 0.000000 0.000000 1.000000
vn 0.000000 0.000000 1.000000
vn 0.000000 0.000000 1.000000
vn 0.000000 0.000000 1.000000
vn 0.000000 1.000000 0.000000
vn 0.000000 1.000000 0.000000
vn 0.000000 1.000000 0.000000
vn 0.000000 1.000000 0.000000
vn 0.000000 0.000000 -1.000000
vn 0.000000 0.000000 -1.000000
vn 0.000000 0.000000 -1.000000
vn 0.000000 0.000000 -1.000000
vn 0.000000 -1.000000 0.000000
vn 0.000000 -1.000000 0.000000
vn 0.000000 -1.000000 0.000000
vn 0.000000 -1.000000 0.000000
vn 1.000000 0.000000 0.000000
vn 1.000000 0.000000 0.000000
vn 1.000000 0.000000 0.000000
vn 1.000000 0.000000 0.000000
vn -1.000000 0.000000 0.000000
vn -1.000000 0.000000 0.000000
vn -1.000000 0.000000 0.000000
vn -1.000000 0.000000 0.000000
vn 0.000000 1.000000 0.000000
vn 0.000000 1.000000 0.000000
vn 0.000000 1.000000 0.000000
vn 0.000000 1.000000 0.000000
vn -1.000000 0.000000 0.000000
vn -1.000000 0.000000 0.000000
vn -1.000000 0.000000 0.000000
vn -1.000000 0.000000 0.000000
vn 0.000000 -1.000000 0.000000
vn 0.000000 -1.000000 0.000000
vn 0.000000 -1.000000 0.000000
vn 0.000000 -1.000000 0.000000
vn 1.000000 0.000000 0.000000
vn 1.000000 0.000000 0.000000
vn 1.000000 0.000000 0.000000
vn 1.000000 0.000000 0.000000
vn 1.000000 0.000000 0.000000
vn 1.000000 0.000000 0.000000
vn 1.000000 0.000000 0.000000
vn 1.000000 0.000000 0.000000
vn 0.000000 0.000000 1.000000
vn 0.000000 0.000000 1.000000
vn 0.000000 0.000000 1.000000
vn 0.000000 0.000000 1.000000
vn -1.000000 0.000000 0.000000
vn -1.000000 0.000000 0.000000
vn -1.000000 0.000000 0.000000
vn -1.000000 0.000000 0.000000
vn -1.000000 0.000000 0.000000
vn -1.000000 0.000000 0.000000
vn -1.000000 0.000000 0.000000
vn -1.000000 0.000000 0.000000
vn 0.000000 0.000000 -1.000000
vn 0.000000 0.000000 -1.000000
vn 0.000000 0.000000 -1.000000
vn 0.000000 0.000000 -1.000000
vn 1.000000 0.000000 0.000000
vn 1.000000 0.000000 0.000000
vn 1.000000 0.000000 0.000000
vn 1.000000 0.000000 0.000000
vn 1.000000 0.000000 0.000000
vn 1.000000 0.000000 0.000000
vn 1.000000 0.000000 0.000000
vn 1.000000 0.000000 0.000000
vn 0.000000 1.000000 0.000000
vn 0.000000 1.000000 0.000000
vn 0.000000 1.000000 0.000000
vn 0.000000 1.000000 0.000000
vn 0.000000 0.000000 1.000000
vn 0.000000 0.000000 1.000000
vn 0.000000 0.000000 1.000000
vn 0.000000 0.000000 1.000000
vn 0.000000 -1.000000 0.000000
vn 0.000000 -1.000000 0.000000
vn 0.000000 -1.000000 0.000000
vn 0.000000 -1.000000 0.000000
vn 0.000000 0.000000 -1.000000
vn 0.000000 0.000000 -1.000000
vn 0.000000 0.000000 -1.000000
vn 0.000000 0.000000 -1.000000
vn 0.000000 0.000000 -1.000000
vn 0.000000 0.000000 -1.000000
vn 0.000000 0.000000 -1.000000
vn 0.000000 0.000000 -1.000000
vn 0.000000 -1.000000 0.000000
vn 0.000000 -1.000000 0.000000
vn 0.000000 0.000000 1.000000
vn 0.000000 0.000000 1.000000
vn 0.000000 1.000000 0.000000
vn 0.000000 1.000000 0.000000
vn -1.000000 0.000000 0.000000
vn -1.000000 0.000000 0.000000
vn -1.000000 0.000000 0.000000
vn -1.000000 0.000000 0.000000
vn 0.000000 1.000000 0.000000
vn 0.000000 1.000000 0.000000
vn 1.000000 0.000000 0.000000
vn 1.000000 0.000000 0.000000
vn 0.000000 -1.000000 0.000000
vn 0.000000 -1.000000 0.000000
s 1
g Handle
usemtl initialShadingGroup
f 1/1/1 2/2/2 27/43/3 28/44/4
s 2
f 3/3/5 4/4/6 13/23/7 14/26/8
s 3
f 31/48/9 32/49/10 8/8/11 7/7/12
s 4
f 15/28/13 16/29/14 2/10/15 1/9/16
s 5
f 2/2/17 16/30/18 26/42/19 27/43/20
s 6
f 15/27/21 1/1/22 28/44/23 29/45/24
s 2
f 10/18/25 9/15/26 6/6/27 5/5/28
s 6
f 7/13/29 11/19/30 30/46/31 31/47/32
s 4
f 7/7/33 8/8/34 12/21/35 11/20/36
s 5
f 32/50/37 25/41/38 12/22/39 8/11/40
s 2
f 14/26/8 13/23/7 9/15/26 10/18/25
s 6
f 11/19/30 15/27/21 29/45/24 30/46/31
s 4
f 11/20/36 12/21/35 16/29/14 15/28/13
s 5
f 25/41/38 26/42/19 16/30/18 12/22/39
f 18/32/41 17/31/42 13/24/43 4/4/44
s 1
f 19/33/45 18/32/46 4/4/47 3/3/48
s 6
f 20/34/49 19/33/50 3/3/51 14/25/52
f 21/35/53 20/34/49 14/25/52 10/17/54
f 22/36/55 21/35/53 10/17/54 5/14/56
s 3
f 5/5/57 6/6/58 23/38/59 22/37/60
s 5
f 9/16/61 24/40/62 23/39/63 6/12/64
f 13/24/43 17/31/42 24/40/62 9/16/61
s 8
f 33/51/65 34/52/66 35/53/67 36/54/68
s 5
f 27/43/20 26/42/19 17/31/42 18/32/41
s 1
f 28/44/4 27/43/3 18/32/46 19/33/45
s 6
f 29/45/24 28/44/23 19/33/50 20/34/49
f 30/46/31 29/45/24 20/34/49 21/35/53
f 31/47/32 30/46/31 21/35/53 22/36/55
s 3
f 22/37/60 23/38/59 32/49/10 31/48/9
s 5
f 24/40/62 25/41/38 32/50/37 23/39/63
s 9
f 24/40/69 17/31/70 40/58/71 37/55/72
s 10
f 17/31/73 26/42/74 39/57/75 40/58/76
s 11
f 26/42/77 25/41/78 38/56/79 39/57/80
s off
f 25/41/81 24/40/82 37/55/83 38/56/84
f 42/59/85 41/60/86 43/61/87 44/62/88
s 11
f 39/57/80 38/56/79 36/54/89 35/53/90
s 10
f 40/58/76 39/57/75 35/53/91 34/52/92
s 9
f 37/55/72 40/58/71 34/52/93 33/51/94
s off
f 38/56/95 37/55/96 41/60/97 42/59/98
s 9
f 37/55/72 33/51/94 43/61/99 41/60/100
s 8
f 33/51/65 36/54/68 44/62/101 43/61/102
s 11
f 36/54/89 38/56/79 42/59/103 44/62/104
g default
v -0.078990 1.418839 -3.628953
v 0.386259 1.418839 -3.628953
v -0.078990 9.567387 -3.628953
v 0.386259 9.567387 -3.628953
v -0.078990 9.567387 -7.362738
v 0.386259 9.567387 -7.362738
v -0.078990 1.418839 -7.362738
v 0.386259 1.418839 -7.362738
v 0.386259 9.567387 -4.310405
v -0.078990 9.567387 -4.310405
v -0.078990 1.418839 -4.310405
v 0.386259 1.418839 -4.310405
v 0.386259 9.567387 -6.649879
v -0.078990 9.567387 -6.649879
v -0.078990 1.418839 -6.649879
v 0.386259 1.418839 -6.649879
v 0.386259 8.916851 -6.649879
v 0.386259 8.916851 -4.310405
v 0.386259 8.916851 -3.628953
v -0.078990 8.916851 -3.628953
v -0.078990 8.916851 -4.310405
v -0.078990 8.916851 -6.649879
v -0.078990 8.916851 -7.362738
v 0.386259 8.916851 -7.362738
v 0.386259 2.194472 -6.649879
v 0.386259 2.194472 -4.310405
v 0.386259 2.194472 -3.628953
v -0.078990 2.194472 -3.628953
v -0.078990 2.194472 -4.310405
v -0.078990 2.194472 -6.649879
v -0.078990 2.194472 -7.362738
v 0.386259 2.194472 -7.362738
v 0.333115 2.300015 -4.428223
v 0.333115 8.811308 -4.428223
v 0.333115 2.300015 -6.532061
v 0.333115 8.811308 -6.532061
vt 0.375000 0.000000
vt 0.625000 0.000000
vt 0.375000 0.250000
vt 0.625000 0.250000
vt 0.375000 0.500000
vt 0.625000 0.500000
vt 0.375000 0.750000
vt 0.625000 0.750000
vt 0.375000 1.000000
vt 0.625000 1.000000
vt 0.875000 0.000000
vt 0.875000 0.250000
vt 0.125000 0.000000
vt 0.125000 0.250000
vt 0.625000 0.295627
vt 0.670627 0.250000
vt 0.329373 0.250000
vt 0.375000 0.295627
vt 0.329373 0.000000
vt 0.375000 0.954373
vt 0.625000 0.954373
vt 0.670627 0.000000
vt 0.625000 0.452270
vt 0.827270 0.250000
vt 0.172730 0.250000
vt 0.375000 0.452270
vt 0.172730 0.000000
vt 0.375000 0.797730
vt 0.625000 0.797730
vt 0.827270 0.000000
vt 0.827270 0.230041
vt 0.670627 0.230041
vt 0.625000 0.230041
vt 0.375000 0.230041
vt 0.329373 0.230041
vt 0.172730 0.230041
vt 0.125000 0.230041
vt 0.375000 0.519959
vt 0.625000 0.519959
vt 0.875000 0.230041
vt 0.827270 0.023797
vt 0.670627 0.023797
vt 0.625000 0.023797
vt 0.375000 0.023797
vt 0.329373 0.023797
vt 0.172730 0.023797
vt 0.125000 0.023797
vt 0.375000 0.726203
vt 0.625000 0.726203
vt 0.875000 0.023797
vt 0.670627 0.230041
vt 0.670627 0.023797
vt 0.827270 0.023797
vt 0.827270 0.230041
vn 0.000000 0.000000 1.000000
vn 0.000000 0.000000 1.000000
vn 0.000000 0.000000 1.000000
vn 0.000000 0.000000 1.000000
vn 0.000000 1.000000 0.000000
vn 0.000000 1.000000 0.000000
vn 0.000000 1.000000 0.000000
vn 0.000000 1.000000 0.000000
vn 0.000000 0.000000 -1.000000
vn 0.000000 0.000000 -1.000000
vn 0.000000 0.000000 -1.000000
vn 0.000000 0.000000 -1.000000
vn 0.000000 -1.000000 0.000000
vn 0.000000 -1.000000 0.000000
vn 0.000000 -1.000000 0.000000
vn 0.000000 -1.000000 0.000000
vn 1.000000 0.000000 0.000000
vn 1.000000 0.000000 0.000000
vn 1.000000 0.000000 0.000000
vn 1.000000 0.000000 0.000000
vn -1.000000 0.000000 0.000000
vn -1.000000 0.000000 0.000000
vn -1.000000 0.000000 0.000000
vn -1.000000 0.000000 0.000000
vn 0.000000 1.000000 0.000000
vn 0.000000 1.000000 0.000000
vn -1.000000 0.000000 0.000000
vn -1.000000 0.000000 0.000000
vn 0.000000 -1.000000 0.000000
vn 0.000000 -1.000000 0.000000
vn 1.000000 0.000000 0.000000
vn 1.000000 0.000000 0.000000
vn 0.000000 1.000000 0.000000
vn 0.000000 1.000000 0.000000
vn -1.000000 0.000000 0.000000
vn -1.000000 0.000000 0.000000
vn 0.000000 -1.000000 0.000000
vn 0.000000 -1.000000 0.000000
vn 1.000000 0.000000 0.000000
vn 1.000000 0.000000 0.000000
vn 1.000000 0.000000 0.000000
vn 1.000000 0.000000 0.000000
vn 1.000000 0.000000 0.000000
vn 1.000000 0.000000 0.000000
vn 1.000000 0.000000 0.000000
vn 1.000000 0.000000 0.000000
vn 0.000000 0.000000 1.000000
vn 0.000000 0.000000 1.000000
vn 0.000000 0.000000 1.000000
vn 0.000000 0.000000 1.000000
vn -1.000000 0.000000 0.000000
vn -1.000000 0.000000 0.000000
vn -1.000000 0.000000 0.000000
vn -1.000000 0.000000 0.000000
vn -1.000000 0.000000 0.000000
vn -1.000000 0.000000 0.000000
vn -1.000000 0.000000 0.000000
vn -1.000000 0.000000 0.000000
vn 0.000000 0.000000 -1.000000
vn 0.000000 0.000000 -1.000000
vn 0.000000 0.000000 -1.000000
vn 0.000000 0.000000 -1.000000
vn 1.000000 0.000000 0.000000
vn 1.000000 0.000000 0.000000
vn 1.000000 0.000000 0.000000
vn 1.000000 0.000000 0.000000
vn 1.000000 0.000000 0.000000
vn 1.000000 0.000000 0.000000
vn 0.911555 0.000000 -0.411177
vn 0.911555 0.000000 -0.411177
vn 0.911555 0.000000 -0.411177
vn 0.911555 0.000000 -0.411177
vn 0.893160 0.449739 0.000000
vn 0.893160 0.449739 0.000000
vn 0.893160 0.449739 0.000000
vn 0.893160 0.449739 0.000000
vn 0.911555 0.000000 0.411178
vn 0.911555 0.000000 0.411178
vn 0.911555 0.000000 0.411178
vn 0.911555 0.000000 0.411178
vn 0.893160 -0.449739 0.000000
vn 0.893160 -0.449739 0.000000
vn 0.893160 -0.449739 0.000000
vn 0.893160 -0.449739 0.000000
s 1
g Door
usemtl initialShadingGroup
f 45/63/105 46/64/106 71/105/107 72/106/108
s 2
f 47/65/109 48/66/110 53/77/111 54/80/112
s 3
f 75/110/113 76/111/114 52/70/115 51/69/116
s 4
f 55/82/117 56/83/118 46/72/119 45/71/120
s 5
f 46/64/121 56/84/122 70/104/123 71/105/124
s 6
f 55/81/125 45/63/126 72/106/127 73/107/128
s 2
f 54/80/112 53/77/111 57/85/129 58/88/130
s 6
f 59/89/131 55/81/125 73/107/128 74/108/132
s 4
f 59/90/133 60/91/134 56/83/118 55/82/117
s 5
f 70/104/123 56/84/122 60/92/135 69/103/136
s 2
f 58/88/130 57/85/129 50/68/137 49/67/138
s 6
f 51/75/139 59/89/131 74/108/132 75/109/140
s 4
f 51/69/141 52/70/142 60/91/134 59/90/133
s 5
f 76/112/143 69/103/136 60/92/135 52/73/144
f 53/78/145 62/94/146 61/93/147 57/86/148
f 63/95/149 62/94/146 53/78/145 48/66/150
s 1
f 64/96/151 63/95/152 48/66/153 47/65/154
s 6
f 65/97/155 64/96/156 47/65/157 54/79/158
f 66/98/159 65/97/155 54/79/158 58/87/160
f 67/99/161 66/98/159 58/87/160 49/76/162
s 3
f 49/67/163 50/68/164 68/101/165 67/100/166
s 5
f 57/86/148 61/93/147 68/102/167 50/74/168
s off
f 78/113/169 77/114/170 79/115/171 80/116/172
s 5
f 71/105/124 70/104/123 62/94/146 63/95/149
s 1
f 72/106/108 71/105/107 63/95/152 64/96/151
s 6
f 73/107/128 72/106/127 64/96/156 65/97/155
f 74/108/132 73/107/128 65/97/155 66/98/159
f 75/109/140 74/108/132 66/98/159 67/99/161
s 3
f 67/100/166 68/101/165 76/111/114 75/110/113
s 5
f 68/102/167 61/93/147 69/103/136 76/112/143
s off
f 62/94/173 70/104/174 77/114/175 78/113/176
f 70/104/177 69/103/178 79/115/179 77/114/180
f 69/103/181 61/93/182 80/116/183 79/115/184
f 61/93/185 62/94/186 78/113/187 80/116/188
g default
v -0.130863 1.452040 -3.425351
v 0.514164 1.452040 -3.425351
v -0.130863 9.808660 -3.425351
v 0.514164 9.808660 -3.425351
v -0.130863 9.808660 -7.551981
v 0.514164 9.808660 -7.551981
v -0.130863 1.452040 -7.551981
v 0.514164 1.452040 -7.551981
v 0.514164 9.808660 -3.678588
v -0.130863 9.808660 -3.678588
v -0.130863 1.452040 -3.678588
v 0.514164 1.452040 -3.678588
v 0.514164 9.808660 -7.312007
v -0.130863 9.808660 -7.312007
v -0.130863 1.452040 -7.312007
v 0.514164 1.452040 -7.312007
v 0.514164 9.528267 -7.551981
v -0.130863 9.528267 -7.551981
v -0.130863 9.528267 -7.312007
v -0.130863 9.528267 -3.678588
v -0.130863 9.528267 -3.425351
v 0.514164 9.528267 -3.425351
v 0.514164 9.528267 -3.678588
v 0.514164 9.528267 -7.312007
vt 0.375000 0.000000
vt 0.625000 0.000000
vt 0.375000 0.250000
vt 0.625000 0.250000
vt 0.375000 0.500000
vt 0.625000 0.500000
vt 0.375000 0.750000
vt 0.625000 0.750000
vt 0.375000 1.000000
vt 0.625000 1.000000
vt 0.875000 0.000000
vt 0.875000 0.250000
vt 0.125000 0.000000
vt 0.125000 0.250000
vt 0.625000 0.267197
vt 0.642197 0.250000
vt 0.357803 0.250000
vt 0.375000 0.267197
vt 0.366401 0.491401
vt 0.633599 0.491401
vt 0.625000 0.483704
vt 0.858704 0.250000
vt 0.141296 0.250000
vt 0.375000 0.483704
vt 0.258148 0.383148
vt 0.741852 0.383148
vt 0.625000 0.508388
vt 0.875000 0.241612
vt 0.125000 0.241612
vt 0.375000 0.508388
vt 0.141296 0.241612
vt 0.357803 0.241612
vt 0.375000 0.241612
vt 0.625000 0.241612
vt 0.642197 0.241612
vt 0.858704 0.241612
vn 0.000000 0.000000 1.000000
vn 0.000000 0.000000 1.000000
vn 0.000000 0.000000 1.000000
vn 0.000000 0.000000 1.000000
vn 0.000000 1.000000 0.000000
vn 0.000000 1.000000 0.000000
vn 0.000000 1.000000 0.000000
vn 0.000000 1.000000 0.000000
vn 0.000000 0.000000 -1.000000
vn 0.000000 0.000000 -1.000000
vn 0.000000 0.000000 -1.000000
vn 0.000000 0.000000 -1.000000
vn 0.000000 -1.000000 0.000000
vn 0.000000 -1.000000 0.000000
vn 0.000000 -1.000000 0.000000
vn 0.000000 -1.000000 0.000000
vn 1.000000 0.000000 0.000000
vn 1.000000 0.000000 0.000000
vn 1.000000 0.000000 0.000000
vn 1.000000 0.000000 0.000000
vn -1.000000 0.000000 0.000000
vn -1.000000 0.000000 0.000000
vn -1.000000 0.000000 0.000000
vn -1.000000 0.000000 0.000000
vn 0.000000 1.000000 0.000000
vn 0.000000 1.000000 0.000000
vn -1.000000 0.000000 0.000000
vn -1.000000 0.000000 0.000000
vn 1.000000 0.000000 0.000000
vn 1.000000 0.000000 0.000000
vn 0.000000 1.000000 0.000000
vn 0.000000 1.000000 0.000000
vn -1.000000 0.000000 0.000000
vn -1.000000 0.000000 0.000000
vn 0.000000 -1.000000 0.000000
vn 0.000000 -1.000000 0.000000
vn 0.000000 -1.000000 0.000000
vn 0.000000 -1.000000 0.000000
vn 1.000000 0.000000 0.000000
vn 1.000000 0.000000 0.000000
vn 0.000000 0.000000 -1.000000
vn 0.000000 0.000000 -1.000000
vn -1.000000 0.000000 0.000000
vn -1.000000 0.000000 0.000000
vn -1.000000 0.000000 0.000000
vn -1.000000 0.000000 0.000000
vn 0.000000 0.000000 1.000000
vn 0.000000 0.000000 1.000000
vn 1.000000 0.000000 0.000000
vn 1.000000 0.000000 0.000000
vn 1.000000 0.000000 0.000000
vn 1.000000 0.000000 0.000000
vn 0.000000 0.000000 -1.000000
vn 0.000000 0.000000 -1.000000
vn 0.000000 0.000000 -1.000000
vn 0.000000 0.000000 -1.000000
vn 0.000000 0.000000 1.000000
vn 0.000000 0.000000 1.000000
vn 0.000000 0.000000 1.000000
vn 0.000000 0.000000 1.000000
vn 0.000000 -1.000000 0.000000
vn 0.000000 -1.000000 0.000000
vn 0.000000 -1.000000 0.000000
vn 0.000000 -1.000000 0.000000
s 1
g Frame
usemtl initialShadingGroup
f 101/149/189 102/150/190 84/120/191 83/119/192
s 2
f 83/119/193 84/120/194 89/131/195 90/134/196
s 3
f 85/121/197 86/122/198 97/143/199 98/146/200
s off
f 91/135/201 92/136/202 82/126/203 81/125/204
s 4
f 102/150/205 103/151/206 89/132/207 84/120/208
s 5
f 100/148/209 101/149/210 83/119/211 90/133/212
s 2
f 90/134/196 89/131/195 93/137/213 94/140/214
s 5
f 99/147/215 100/148/209 90/133/212 94/139/216
s 4
f 89/132/207 103/151/206 104/152/217 93/138/218
s 2
f 94/140/214 93/137/213 86/122/219 85/121/220
s 5
f 98/145/221 99/147/215 94/139/216 85/130/222
s off
f 87/123/223 88/124/224 96/142/225 95/141/226
s 4
f 93/138/218 104/152/217 97/144/227 86/128/228
s 3
f 98/146/200 97/143/199 88/124/229 87/123/230
s 5
f 87/129/231 95/141/232 99/147/215 98/145/221
f 91/135/233 81/117/234 101/149/210 100/148/209
s 1
f 81/117/235 82/118/236 102/150/190 101/149/189
s 4
f 82/118/237 92/136/238 103/151/206 102/150/205
f 97/144/227 104/152/217 96/142/239 88/127/240
s off
f 103/151/241 92/136/242 91/135/243 100/148/244
f 96/142/245 104/152/246 99/147/247 95/141/248
f 100/148/249 99/147/250 104/152/251 103/151/252
