# This file uses centimeters as units for non-parametric coordinates.

mtllib Stairs.mtl
g default
v -0.827679 -0.042013 -2.999014
v 4.671533 -0.042013 -2.999014
v -0.827679 1.480989 -2.999014
v -0.827679 1.480989 -7.955479
v -0.827679 -0.042013 -7.955479
v 4.671533 -0.042013 -7.955479
v 3.687826 1.480989 -2.999014
v 3.687826 1.480989 -7.955479
v 3.677078 -0.042013 -7.955479
v 3.677078 -0.042013 -2.999014
v 4.671533 0.707182 -2.999014
v 3.687826 0.707182 -2.999014
v -0.827679 0.707182 -2.999014
v -0.827679 0.707182 -7.955479
v 3.687826 0.707182 -7.955479
v 4.671533 0.707182 -7.955479
vt 0.375000 0.000000
vt 0.625000 0.000000
vt 0.375000 0.250000
vt 0.375000 0.500000
vt 0.375000 0.750000
vt 0.625000 0.750000
vt 0.375000 1.000000
vt 0.625000 1.000000
vt 0.875000 0.000000
vt 0.125000 0.000000
vt 0.125000 0.250000
vt 0.592646 0.250000
vt 0.592646 0.500000
vt 0.592646 0.750000
vt 0.592646 0.000000
vt 0.592646 1.000000
vt 0.625000 0.122980
vt 0.592646 0.122980
vt 0.375000 0.122980
vt 0.125000 0.122980
vt 0.375000 0.627020
vt 0.592646 0.627020
vt 0.750000 0.375000
vn 0.000000 0.000000 1.000000
vn 0.000000 0.000000 1.000000
vn 0.000000 0.000000 1.000000
vn 0.000000 0.000000 1.000000
vn 0.000000 1.000000 0.000000
vn 0.000000 1.000000 0.000000
vn 0.000000 1.000000 0.000000
vn 0.000000 1.000000 0.000000
vn 0.000000 0.000000 -1.000000
vn 0.000000 0.000000 -1.000000
vn 0.000000 0.000000 -1.000000
vn 0.000000 0.000000 -1.000000
vn 0.000000 -1.000000 0.000000
vn 0.000000 -1.000000 0.000000
vn 0.000000 -1.000000 0.000000
vn 0.000000 -1.000000 0.000000
vn 1.000000 0.000000 0.000000
vn 1.000000 0.000000 0.000000
vn 1.000000 0.000000 0.000000
vn 1.000000 0.000000 0.000000
vn -1.000000 0.000000 0.000000
vn -1.000000 0.000000 0.000000
vn -1.000000 0.000000 0.000000
vn -1.000000 0.000000 0.000000
vn 0.000000 0.000000 -1.000000
vn 0.000000 0.000000 -1.000000
vn 0.000000 -1.000000 0.000000
vn 0.000000 -1.000000 0.000000
vn 0.000000 0.000000 1.000000
vn 0.000000 0.000000 1.000000
vn 0.000000 0.000000 1.000000
vn 0.000000 0.000000 1.000000
vn -1.000000 0.000000 0.000000
vn -1.000000 0.000000 0.000000
vn 0.000000 0.000000 -1.000000
vn 0.000000 0.000000 -1.000000
vn 0.000000 1.000000 0.000000
vn 0.000000 1.000000 0.000000
vn 0.000000 1.000000 0.000000
vn 0.000000 1.000000 0.000000
vn 1.000000 0.000000 0.000000
vn 1.000000 0.000000 0.000000
vn 1.000000 0.000000 0.000000
vn 1.000000 0.000000 0.000000
s 1
g Stairs
usemtl initialShadingGroup
f 1/1/1 10/15/2 12/18/3 13/19/4
s off
f 3/3/5 7/12/6 8/13/7 4/4/8
s 2
f 14/21/9 15/22/10 9/14/11 5/5/12
s 3
f 5/5/13 9/14/14 10/16/15 1/7/16
s off
f 2/2/17 6/9/18 16/23/19 11/17/20
s 4
f 5/10/21 1/1/22 13/19/23 14/20/24
s 2
f 9/14/11 15/22/10 16/23/25 6/6/26
s 3
f 10/16/15 9/14/14 6/6/27 2/8/28
s 1
f 12/18/3 10/15/2 2/2/29 11/17/30
f 13/19/4 12/18/3 7/12/31 3/3/32
s 4
f 14/20/24 13/19/23 3/3/33 4/11/34
s 2
f 4/4/35 8/13/36 15/22/10 14/21/9
s off
f 12/18/37 11/17/38 16/23/39 15/22/40
f 15/22/41 8/13/42 7/12/43 12/18/44
