# This file uses centimeters as units for non-parametric coordinates.

mtllib Window_long.mtl
g default
v 0.571367 6.210791 4.824697
v 1.267769 6.210791 4.824697
v 0.571367 9.559758 4.824697
v 1.267769 9.559758 4.824697
v 0.571367 9.559758 -3.783056
v 1.267769 9.559758 -3.783056
v 0.571367 6.210791 -3.783056
v 1.267769 6.210791 -3.783056
vt 0.375000 0.000000
vt 0.625000 0.000000
vt 0.375000 0.250000
vt 0.625000 0.250000
vt 0.375000 0.500000
vt 0.625000 0.500000
vt 0.375000 0.750000
vt 0.625000 0.750000
vt 0.375000 1.000000
vt 0.625000 1.000000
vt 0.875000 0.000000
vt 0.875000 0.250000
vt 0.125000 0.000000
vt 0.125000 0.250000
vn 0.000000 0.000000 1.000000
vn 0.000000 0.000000 1.000000
vn 0.000000 0.000000 1.000000
vn 0.000000 0.000000 1.000000
vn 0.000000 1.000000 0.000000
vn 0.000000 1.000000 0.000000
vn 0.000000 1.000000 0.000000
vn 0.000000 1.000000 0.000000
vn 0.000000 0.000000 -1.000000
vn 0.000000 0.000000 -1.000000
vn 0.000000 0.000000 -1.000000
vn 0.000000 0.000000 -1.000000
vn 0.000000 -1.000000 0.000000
vn 0.000000 -1.000000 0.000000
vn 0.000000 -1.000000 0.000000
vn 0.000000 -1.000000 0.000000
vn 1.000000 0.000000 0.000000
vn 1.000000 0.000000 0.000000
vn 1.000000 0.000000 0.000000
vn 1.000000 0.000000 0.000000
vn -1.000000 0.000000 0.000000
vn -1.000000 0.000000 0.000000
vn -1.000000 0.000000 0.000000
vn -1.000000 0.000000 0.000000
s off
g glass
usemtl initialShadingGroup
f 1/1/1 2/2/2 4/4/3 3/3/4
f 3/3/5 4/4/6 6/6/7 5/5/8
f 5/5/9 6/6/10 8/8/11 7/7/12
f 7/7/13 8/8/14 2/10/15 1/9/16
f 2/2/17 8/11/18 6/12/19 4/4/20
f 7/13/21 1/1/22 3/3/23 5/14/24
g default
v 0.414833 5.954714 5.128670
v 1.414833 5.954714 5.128670
v 0.414833 9.783990 5.128670
v 1.414833 9.783990 5.128670
v 0.414833 9.783990 -4.113912
v 1.414833 9.783990 -4.113912
v 0.414833 5.954714 -4.113912
v 1.414833 5.954714 -4.113912
v 1.414833 9.783990 4.695916
v 0.414833 9.783990 4.695916
v 0.414833 5.954714 4.695916
v 1.414833 5.954714 4.695916
v 1.414833 9.783990 -3.696512
v 0.414833 9.783990 -3.696512
v 0.414833 5.954714 -3.696512
v 1.414833 5.954714 -3.696512
v 1.414833 9.386244 -3.696512
v 1.414833 9.386244 4.695916
v 1.414833 9.386244 5.128670
v 0.414833 9.386244 5.128670
v 0.414833 9.386244 4.695916
v 0.414833 9.386244 -3.696512
v 0.414833 9.386244 -4.113912
v 1.414833 9.386244 -4.113912
v 1.414833 6.396774 -3.696512
v 1.414833 6.396774 4.695916
v 1.414833 6.396774 5.128670
v 0.414833 6.396774 5.128670
v 0.414833 6.396774 4.695916
v 0.414833 6.396774 -3.696512
v 0.414833 6.396774 -4.113912
v 1.414833 6.396774 -4.113912
vt 0.375000 0.000000
vt 0.625000 0.000000
vt 0.375000 0.250000
vt 0.625000 0.250000
vt 0.375000 0.500000
vt 0.625000 0.500000
vt 0.375000 0.750000
vt 0.625000 0.750000
vt 0.375000 1.000000
vt 0.625000 1.000000
vt 0.875000 0.000000
vt 0.875000 0.250000
vt 0.125000 0.000000
vt 0.125000 0.250000
vt 0.625000 0.274318
vt 0.649318 0.250000
vt 0.350682 0.250000
vt 0.375000 0.274318
vt 0.350682 0.000000
vt 0.375000 0.975682
vt 0.625000 0.975682
vt 0.649318 0.000000
vt 0.625000 0.476545
vt 0.851545 0.250000
vt 0.148455 0.250000
vt 0.375000 0.476545
vt 0.148455 0.000000
vt 0.375000 0.773455
vt 0.625000 0.773455
vt 0.851545 0.000000
vt 0.851545 0.224033
vt 0.649318 0.224033
vt 0.625000 0.224033
vt 0.375000 0.224033
vt 0.350682 0.224033
vt 0.148455 0.224033
vt 0.125000 0.224033
vt 0.375000 0.525967
vt 0.625000 0.525967
vt 0.875000 0.224033
vt 0.851545 0.028860
vt 0.649318 0.028860
vt 0.625000 0.028860
vt 0.375000 0.028860
vt 0.350682 0.028860
vt 0.148455 0.028860
vt 0.125000 0.028860
vt 0.375000 0.721140
vt 0.625000 0.721140
vt 0.875000 0.028860
vn 0.000000 0.000000 1.000000
vn 0.000000 0.000000 1.000000
vn 0.000000 0.000000 1.000000
vn 0.000000 0.000000 1.000000
vn 0.000000 1.000000 0.000000
vn 0.000000 1.000000 0.000000
vn 0.000000 1.000000 0.000000
vn 0.000000 1.000000 0.000000
vn 0.000000 0.000000 -1.000000
vn 0.000000 0.000000 -1.000000
vn 0.000000 0.000000 -1.000000
vn 0.000000 0.000000 -1.000000
vn 0.000000 -1.000000 0.000000
vn 0.000000 -1.000000 0.000000
vn 0.000000 -1.000000 0.000000
vn 0.000000 -1.000000 0.000000
vn 1.000000 0.000000 0.000000
vn 1.000000 0.000000 0.000000
vn 1.000000 0.000000 0.000000
vn 1.000000 0.000000 0.000000
vn -1.000000 0.000000 0.000000
vn -1.000000 0.000000 0.000000
vn -1.000000 0.000000 0.000000
vn -1.000000 0.000000 0.000000
vn 0.000000 1.000000 0.000000
vn 0.000000 1.000000 0.000000
vn -1.000000 0.000000 0.000000
vn -1.000000 0.000000 0.000000
vn 0.000000 -1.000000 0.000000
vn 0.000000 -1.000000 0.000000
vn 1.000000 0.000000 0.000000
vn 1.000000 0.000000 0.000000
vn 0.000000 1.000000 0.000000
vn 0.000000 1.000000 0.000000
vn -1.000000 0.000000 0.000000
vn -1.000000 0.000000 0.000000
vn 0.000000 -1.000000 0.000000
vn 0.000000 -1.000000 0.000000
vn 1.000000 0.000000 0.000000
vn 1.000000 0.000000 0.000000
vn 1.000000 0.000000 0.000000
vn 1.000000 0.000000 0.000000
vn 1.000000 0.000000 0.000000
vn 1.000000 0.000000 0.000000
vn 1.000000 0.000000 0.000000
vn 1.000000 0.000000 0.000000
vn 0.000000 0.000000 1.000000
vn 0.000000 0.000000 1.000000
vn 0.000000 0.000000 1.000000
vn 0.000000 0.000000 1.000000
vn -1.000000 0.000000 0.000000
vn -1.000000 0.000000 0.000000
vn -1.000000 0.000000 0.000000
vn -1.000000 0.000000 0.000000
vn -1.000000 0.000000 0.000000
vn -1.000000 0.000000 0.000000
vn -1.000000 0.000000 0.000000
vn -1.000000 0.000000 0.000000
vn 0.000000 0.000000 -1.000000
vn 0.000000 0.000000 -1.000000
vn 0.000000 0.000000 -1.000000
vn 0.000000 0.000000 -1.000000
vn 1.000000 0.000000 0.000000
vn 1.000000 0.000000 0.000000
vn 0.000000 0.000000 1.000000
vn 0.000000 0.000000 1.000000
vn 0.000000 0.000000 1.000000
vn 0.000000 0.000000 1.000000
vn 0.000000 1.000000 0.000000
vn 0.000000 1.000000 0.000000
vn 0.000000 1.000000 0.000000
vn 0.000000 1.000000 0.000000
vn 0.000000 0.000000 -1.000000
vn 0.000000 0.000000 -1.000000
vn 0.000000 0.000000 -1.000000
vn 0.000000 0.000000 -1.000000
vn 0.000000 -1.000000 0.000000
vn 0.000000 -1.000000 0.000000
vn 0.000000 -1.000000 0.000000
vn 0.000000 -1.000000 0.000000
s 1
g frame
usemtl initialShadingGroup
f 9/15/25 10/16/26 35/57/27 36/58/28
s 2
f 11/17/29 12/18/30 17/29/31 18/32/32
s 3
f 39/62/33 40/63/34 16/22/35 15/21/36
s 4
f 19/34/37 20/35/38 10/24/39 9/23/40
s 5
f 10/16/41 20/36/42 34/56/43 35/57/44
s 6
f 19/33/45 9/15/46 36/58/47 37/59/48
s 2
f 18/32/32 17/29/31 21/37/49 22/40/50
s 6
f 23/41/51 19/33/45 37/59/48 38/60/52
s 4
f 23/42/53 24/43/54 20/35/38 19/34/37
s 5
f 34/56/43 20/36/42 24/44/55 33/55/56
s 2
f 22/40/50 21/37/49 14/20/57 13/19/58
s 6
f 15/27/59 23/41/51 38/60/52 39/61/60
s 4
f 15/21/61 16/22/62 24/43/54 23/42/53
s 5
f 40/64/63 33/55/56 24/44/55 16/25/64
f 17/30/65 26/46/66 25/45/67 21/38/68
f 27/47/69 26/46/66 17/30/65 12/18/70
s 1
f 28/48/71 27/47/72 12/18/73 11/17/74
s 6
f 29/49/75 28/48/76 11/17/77 18/31/78
f 30/50/79 29/49/75 18/31/78 22/39/80
f 31/51/81 30/50/79 22/39/80 13/28/82
s 3
f 13/19/83 14/20/84 32/53/85 31/52/86
s 5
f 21/38/68 25/45/67 32/54/87 14/26/88
f 35/57/44 34/56/43 26/46/66 27/47/69
s 1
f 36/58/28 35/57/27 27/47/72 28/48/71
s 6
f 37/59/48 36/58/47 28/48/76 29/49/75
f 39/61/60 38/60/52 30/50/79 31/51/81
s 3
f 31/52/86 32/53/85 40/63/34 39/62/33
s 5
f 32/54/87 25/45/67 33/55/56 40/64/63
s off
f 30/50/89 38/60/90 33/55/91 25/45/92
f 34/56/93 33/55/94 38/60/95 37/59/96
f 37/59/97 29/49/98 26/46/99 34/56/100
f 25/45/101 26/46/102 29/49/103 30/50/104
