# This file uses centimeters as units for non-parametric coordinates.

mtllib conveyor.mtl
g default
v -3.721463 -6.850039 17.512131
v 3.721463 -6.850039 17.512131
v -3.721463 -1.696183 17.512131
v 3.721463 -1.696183 17.512131
v -3.721463 -1.696183 14.591520
v 3.721463 -1.696183 14.591520
v -3.721463 -6.850039 11.596054
v 3.721463 -6.850039 11.596054
v 1.240487 -6.850039 11.596055
v 1.240487 -6.850039 17.512131
v 1.240487 -1.696183 17.512131
v 1.240487 -1.696183 14.591521
v -1.240488 -6.850039 11.596055
v -1.240488 -6.850039 17.512131
v -1.240488 -1.696183 17.512131
v -1.240488 -1.696183 14.591521
v 5.105619 -6.850039 11.596054
v 5.105619 -6.850039 17.512131
v 5.105619 -1.696183 14.591520
v 5.105619 -1.696183 17.512131
v -5.105619 -6.850039 11.596054
v -5.105619 -6.850039 17.512131
v -5.105619 -1.696183 17.512131
v -5.105619 -1.696183 14.591520
v 3.721463 -1.775052 11.019931
v 3.721463 -6.928908 8.024464
v 5.105619 -1.775052 11.019931
v 5.105619 -6.928908 8.024464
v -3.721463 -1.775052 11.019931
v -3.721463 -6.928908 8.024464
v -5.105619 -6.928908 8.024464
v -5.105619 -1.775052 11.019931
v -3.721463 3.666193 17.512131
v -1.240488 3.666193 17.512131
v -1.240488 3.666193 14.591521
v -3.721463 3.665539 14.532331
v 1.240487 3.666193 17.512131
v 1.240487 3.666193 14.591521
v 3.721463 3.666193 17.512131
v 3.721463 3.665539 14.532331
v 5.105619 3.666193 17.512131
v 5.105619 3.665539 14.532331
v -5.105619 3.665539 14.532331
v -5.105619 3.666193 17.512131
v 5.105619 3.586017 10.901545
v 3.721463 3.586017 10.901545
v -3.721463 3.586017 10.901545
v -5.105619 3.586017 10.901545
v 3.721463 -1.664661 -17.165129
v 3.721463 -6.818516 -20.160600
v 5.105619 -1.664661 -17.165129
v 5.105619 -6.818516 -20.160600
v -3.721463 -1.664661 -17.165129
v -3.721463 -6.818516 -20.160600
v -5.105619 -6.818516 -20.160600
v -5.105619 -1.664661 -17.165129
v 3.721463 -1.703429 -19.088481
v 3.721463 -6.857284 -22.083949
v 5.105619 -1.703429 -19.088481
v 5.105619 -6.857284 -22.083949
v -3.721463 -1.703429 -19.088481
v -3.721463 -6.857284 -22.083949
v -5.105619 -6.857284 -22.083949
v -5.105619 -1.703429 -19.088481
v 3.721463 4.517681 -17.289744
v 5.105619 4.517681 -17.289744
v 5.105619 4.478913 -19.213096
v 3.721463 4.478913 -19.213096
v -3.721463 4.517681 -17.289744
v -5.105619 4.517681 -17.289744
v -3.721463 4.478913 -19.213096
v -5.105619 4.478913 -19.213096
v -1.240488 -6.850039 17.512131
v -1.240488 -1.696183 17.512131
v 1.240487 -6.850039 17.512131
v 1.240487 -1.696183 17.512131
v -3.721463 -1.696183 17.512131
v -1.240488 3.666193 17.512131
v -3.721463 3.666193 17.512131
v 3.721463 -1.696183 17.512131
v 3.721463 3.666193 17.512131
v 1.240487 3.666193 17.512131
v 3.721463 4.517681 -17.289744
v 5.105619 4.517681 -17.289744
v 5.105619 4.478913 -19.213096
v 3.721463 4.478913 -19.213096
v -3.721463 4.517681 -17.289744
v -5.105619 4.517681 -17.289744
v -3.721463 4.478913 -19.213096
v -5.105619 4.478913 -19.213096
v -1.240488 -6.850039 19.272485
v -1.240488 -1.696183 19.272485
v 1.240487 -6.850039 19.272485
v 1.240487 -1.696183 19.272485
v -3.721463 -1.696183 19.272485
v -1.240488 3.666193 19.272485
v -3.721463 3.666193 19.272485
v 3.721463 -1.696183 19.272485
v 3.721463 3.666193 19.272485
v 1.240487 3.666193 19.272485
vt 0.375000 0.000000
vt 0.625000 0.000000
vt 0.375000 0.250000
vt 0.625000 0.250000
vt 0.375000 0.500000
vt 0.625000 0.500000
vt 0.375000 0.750000
vt 0.625000 0.750000
vt 0.375000 1.000000
vt 0.625000 1.000000
vt 0.875000 0.000000
vt 0.875000 0.250000
vt 0.125000 0.000000
vt 0.125000 0.250000
vt 0.541667 0.750000
vt 0.541667 0.000000
vt 0.541667 1.000000
vt 0.541667 0.250000
vt 0.541667 0.500000
vt 0.458333 0.750000
vt 0.458333 0.000000
vt 0.458333 1.000000
vt 0.458333 0.250000
vt 0.458333 0.500000
vt 0.625000 0.000000
vt 0.875000 0.000000
vt 0.875000 0.250000
vt 0.625000 0.250000
vt 0.125000 0.000000
vt 0.375000 0.000000
vt 0.375000 0.250000
vt 0.125000 0.250000
vt 0.875000 0.000000
vt 0.875000 0.250000
vt 0.875000 0.250000
vt 0.875000 0.000000
vt 0.125000 0.250000
vt 0.125000 0.000000
vt 0.125000 0.000000
vt 0.125000 0.250000
vt 0.375000 0.250000
vt 0.458333 0.250000
vt 0.458333 0.500000
vt 0.375000 0.500000
vt 0.541667 0.250000
vt 0.625000 0.250000
vt 0.625000 0.500000
vt 0.541667 0.500000
vt 0.625000 0.250000
vt 0.875000 0.250000
vt 0.125000 0.250000
vt 0.375000 0.250000
vt 0.875000 0.250000
vt 0.875000 0.250000
vt 0.875000 0.250000
vt 0.125000 0.250000
vt 0.125000 0.250000
vt 0.125000 0.250000
vt 0.875000 0.000000
vt 0.875000 0.250000
vt 0.875000 0.250000
vt 0.875000 0.000000
vt 0.125000 0.250000
vt 0.125000 0.000000
vt 0.125000 0.000000
vt 0.125000 0.250000
vt 0.875000 0.000000
vt 0.875000 0.250000
vt 0.875000 0.250000
vt 0.875000 0.000000
vt 0.125000 0.250000
vt 0.125000 0.000000
vt 0.125000 0.000000
vt 0.125000 0.250000
vt 0.875000 0.250000
vt 0.875000 0.250000
vt 0.875000 0.250000
vt 0.875000 0.250000
vt 0.125000 0.250000
vt 0.125000 0.250000
vt 0.125000 0.250000
vt 0.125000 0.250000
vt 0.458333 0.250000
vt 0.458333 0.000000
vt 0.541667 0.000000
vt 0.541667 0.250000
vt 0.375000 0.250000
vt 0.458333 0.250000
vt 0.375000 0.250000
vt 0.625000 0.250000
vt 0.625000 0.250000
vt 0.541667 0.250000
vt 0.875000 0.250000
vt 0.875000 0.250000
vt 0.875000 0.250000
vt 0.875000 0.250000
vt 0.125000 0.250000
vt 0.125000 0.250000
vt 0.125000 0.250000
vt 0.125000 0.250000
vt 0.458333 0.250000
vt 0.458333 0.000000
vt 0.541667 0.000000
vt 0.541667 0.250000
vt 0.375000 0.250000
vt 0.458333 0.250000
vt 0.375000 0.250000
vt 0.625000 0.250000
vt 0.625000 0.250000
vt 0.541667 0.250000
vn 0.000000 0.000000 1.000000
vn 0.000000 0.000000 1.000000
vn 0.000000 0.000000 1.000000
vn 0.000000 0.000000 1.000000
vn -0.000083 1.000000 -0.000150
vn -0.000066 1.000000 -0.000056
vn -0.000067 1.000000 -0.000057
vn -0.000057 0.999976 -0.006904
vn 0.000000 0.502500 -0.864577
vn 0.000000 0.502500 -0.864577
vn 0.000000 0.502500 -0.864577
vn 0.000000 0.502500 -0.864577
vn 0.000000 -0.999992 0.003925
vn 0.000000 -1.000000 0.000000
vn 0.000000 -1.000000 0.000000
vn 0.000000 -1.000000 0.000000
vn 1.000000 -0.000000 0.000000
vn 1.000000 -0.000000 0.000000
vn 1.000000 -0.000000 0.000000
vn 1.000000 -0.000000 0.000000
vn -1.000000 -0.000000 0.000000
vn -1.000000 -0.000000 0.000000
vn -1.000000 -0.000000 0.000000
vn -1.000000 -0.000000 0.000000
vn 0.000000 -1.000000 0.000000
vn 0.000000 -0.999992 0.003925
vn 0.000000 -1.000000 0.000000
vn 0.000000 -1.000000 0.000000
vn 0.000000 0.000000 1.000000
vn 0.000000 0.000000 1.000000
vn 0.000000 0.000000 1.000000
vn 0.000000 0.000000 1.000000
vn 0.000067 1.000000 -0.000057
vn 0.000066 1.000000 -0.000056
vn 0.000083 1.000000 -0.000150
vn 0.000057 0.999976 -0.006904
vn -0.000000 0.502500 -0.864577
vn -0.000000 0.502500 -0.864577
vn -0.000000 0.502500 -0.864577
vn -0.000000 0.502500 -0.864577
vn 0.000000 0.000000 1.000000
vn 0.000000 0.000000 1.000000
vn 0.000000 0.000000 1.000000
vn 0.000000 0.000000 1.000000
vn 0.000000 -0.999965 0.008312
vn 0.000000 -1.000000 0.000000
vn 0.000000 0.502500 -0.864577
vn 0.000000 0.502500 -0.864577
vn 0.000000 0.502500 -0.864577
vn 0.000000 0.502500 -0.864577
vn 0.000000 1.000000 -0.000220
vn 0.000000 0.999927 -0.012127
vn 0.000000 0.000000 1.000000
vn 0.000000 0.000000 1.000000
vn 0.000000 -1.000000 0.000000
vn 0.000000 -0.999965 0.008312
vn 0.000000 0.000000 1.000000
vn 0.000000 0.000000 1.000000
vn 0.000000 0.999927 -0.012127
vn 0.000000 1.000000 -0.000220
vn 0.000000 0.502500 -0.864577
vn 0.000000 0.502500 -0.864577
vn 0.000000 0.502500 -0.864577
vn 0.000000 0.502500 -0.864577
vn -1.000000 0.000000 0.000000
vn -1.000000 0.000000 0.000000
vn -1.000000 0.000000 0.000000
vn -1.000000 0.000000 0.000000
vn 0.000000 0.999760 -0.021897
vn 0.000000 0.999760 -0.021897
vn 1.000000 -0.000000 0.000000
vn 1.000000 -0.000000 0.000000
vn 0.000000 -1.000000 -0.000993
vn 0.000000 -1.000000 -0.000993
vn 1.000000 -0.000000 0.000000
vn 1.000000 -0.000000 0.000000
vn 1.000000 -0.000000 0.000000
vn 1.000000 -0.000000 0.000000
vn 0.000000 -1.000000 -0.000993
vn 0.000000 -1.000000 -0.000993
vn -1.000000 -0.000000 0.000000
vn -1.000000 -0.000000 0.000000
vn 0.000000 0.999760 -0.021897
vn 0.000000 0.999760 -0.021897
vn 0.000000 0.000000 1.000000
vn 0.000000 0.000000 1.000000
vn 0.000000 0.000000 1.000000
vn 0.005964 -0.002759 -0.999978
vn 0.011928 -0.005519 -0.999914
vn 0.011928 -0.005519 -0.999914
vn 0.005964 -0.002759 -0.999978
vn 0.000000 0.000000 1.000000
vn 0.000000 0.000000 1.000000
vn 0.000000 0.000000 1.000000
vn -0.011928 -0.005519 -0.999914
vn -0.005964 -0.002759 -0.999978
vn -0.005964 -0.002759 -0.999978
vn -0.011928 -0.005519 -0.999914
vn 0.000000 0.000000 1.000000
vn 0.000000 0.000000 1.000000
vn 1.000000 0.000000 0.000000
vn 1.000000 0.000000 0.000000
vn -1.000000 -0.000000 0.000000
vn -1.000000 0.000000 0.000000
vn 0.000000 0.000000 1.000000
vn 0.000000 0.000000 1.000000
vn 1.000000 0.000000 0.000000
vn 0.000000 -0.022077 -0.999756
vn 0.000000 -0.022077 -0.999756
vn 0.000000 -0.022077 -0.999756
vn 0.000000 -0.022077 -0.999756
vn -1.000000 0.000000 0.000000
vn -1.000000 0.000000 0.000000
vn 1.000000 0.000000 0.000000
vn 1.000000 0.000000 0.000000
vn 0.000000 -0.022077 -0.999756
vn 0.000000 -0.022077 -0.999756
vn 0.000000 -0.022077 -0.999756
vn 0.000000 -0.022077 -0.999756
vn -1.000000 0.000000 0.000000
vn -1.000000 0.000000 0.000000
vn -1.000000 0.000000 0.000000
vn 0.000000 0.999992 0.003917
vn 0.000000 0.999992 0.003917
vn 0.000000 0.999992 0.003917
vn 0.000000 0.999992 0.003917
vn 1.000000 0.000000 0.000000
vn 1.000000 0.000000 0.000000
vn 0.000000 -0.999997 -0.002379
vn 0.000000 -0.999997 -0.002379
vn 1.000000 0.000000 0.000000
vn 1.000000 0.000000 0.000000
vn 0.000000 -0.999997 -0.002379
vn 0.000000 -0.999997 -0.002379
vn -1.000000 0.000000 0.000000
vn -1.000000 0.000000 0.000000
vn 0.000000 0.999992 0.003917
vn 0.000000 0.999992 0.003917
vn 0.000000 0.999992 0.003917
vn 0.000000 0.999992 0.003917
vn -1.000000 0.000000 0.000000
vn -1.000000 0.000000 0.000000
vn 0.000000 0.999797 -0.020152
vn 0.000000 0.999797 -0.020152
vn 0.000000 0.999797 -0.020152
vn 0.000000 0.999797 -0.020152
vn 1.000000 0.000000 0.000000
vn 1.000000 0.000000 0.000000
vn 0.000000 -0.999797 0.020152
vn 0.000000 -0.999797 0.020152
vn 1.000000 0.000000 0.000000
vn 1.000000 0.000000 0.000000
vn 0.000000 -0.999797 0.020152
vn 0.000000 -0.999797 0.020152
vn -1.000000 0.000000 0.000000
vn -1.000000 0.000000 0.000000
vn 0.000000 0.999797 -0.020152
vn 0.000000 0.999797 -0.020152
vn 0.000000 0.999797 -0.020152
vn 0.000000 0.999797 -0.020152
vn 0.000000 0.020152 0.999797
vn 0.000000 0.020152 0.999797
vn 0.000000 0.020152 0.999797
vn 0.000000 0.020152 0.999797
vn 1.000000 -0.000000 0.000000
vn 1.000000 -0.000000 0.000000
vn 0.000000 -0.020152 -0.999797
vn 0.000000 -0.020152 -0.999797
vn 0.000000 -0.020152 -0.999797
vn 0.000000 -0.020152 -0.999797
vn -1.000000 0.000000 0.000000
vn -1.000000 0.000000 0.000000
vn 0.000000 0.020152 0.999797
vn 0.000000 0.020152 0.999797
vn 0.000000 0.020152 0.999797
vn 0.000000 0.020152 0.999797
vn 1.000000 0.000000 0.000000
vn 1.000000 0.000000 0.000000
vn 0.000000 -0.020152 -0.999797
vn 0.000000 -0.020152 -0.999797
vn 0.000000 -0.020152 -0.999797
vn 0.000000 -0.020152 -0.999797
vn -1.000000 0.000000 0.000000
vn -1.000000 0.000000 0.000000
vn 0.000000 0.000000 0.000000
vn 0.000000 0.000000 0.000000
vn 0.000000 0.000000 0.000000
vn 0.000000 0.000000 0.000000
vn 0.000000 0.000000 0.000000
vn 0.000000 0.000000 0.000000
vn 0.000000 0.000000 0.000000
vn 0.000000 0.000000 0.000000
vn 0.000000 0.000000 0.000000
vn 0.000000 0.000000 0.000000
vn 0.000000 0.000000 0.000000
vn 0.000000 0.000000 0.000000
vn 0.000000 0.000000 0.000000
vn 0.000000 0.000000 0.000000
vn 0.000000 0.000000 0.000000
vn 0.000000 0.000000 0.000000
vn 0.000000 0.000000 0.000000
vn 0.000000 0.000000 0.000000
vn 0.000000 0.000000 0.000000
vn 0.000000 0.000000 0.000000
vn 0.000000 0.000000 0.000000
vn 0.000000 0.000000 0.000000
vn 0.000000 0.000000 0.000000
vn 0.000000 0.000000 0.000000
vn 0.000000 0.000000 0.000000
vn 0.000000 0.000000 0.000000
vn 0.000000 0.000000 0.000000
vn 0.000000 0.000000 0.000000
vn 0.000000 0.000000 0.000000
vn 0.000000 0.000000 0.000000
vn 0.000000 0.000000 0.000000
vn 0.000000 0.000000 0.000000
vn 0.000000 0.000000 0.000000
vn 0.000000 0.000000 0.000000
vn 0.000000 0.000000 0.000000
vn 0.000000 0.000000 0.000000
vn 0.000000 0.000000 0.000000
vn 0.000000 0.000000 0.000000
vn 0.000000 0.000000 0.000000
vn 0.000000 0.000000 0.000000
vn 0.000000 0.000000 0.000000
vn 0.000000 0.000000 0.000000
vn 0.000000 0.000000 0.000000
vn 0.000000 0.000000 0.000000
vn 0.000000 0.000000 0.000000
vn 0.000000 0.000000 0.000000
vn 0.000000 0.000000 0.000000
vn 0.000000 0.000000 0.000000
vn 0.000000 0.000000 0.000000
vn 0.000000 0.000000 0.000000
vn 0.000000 0.000000 0.000000
vn 0.000000 0.000000 0.000000
vn 0.000000 0.000000 0.000000
vn 0.000000 0.000000 0.000000
vn 0.000000 0.000000 0.000000
vn 0.000000 0.000000 0.000000
vn 0.000000 0.000000 0.000000
vn 0.000000 0.000000 0.000000
vn 0.000000 0.000000 0.000000
vn 0.000000 0.000000 0.000000
vn 0.000000 0.000000 0.000000
vn 0.000000 0.000000 0.000000
vn 0.000000 0.000000 0.000000
vn 0.000000 0.000000 0.000000
vn 0.000000 0.000000 0.000000
vn 0.000000 0.000000 0.000000
vn 0.000000 0.000000 0.000000
vn 0.000000 0.000000 0.000000
vn 0.000000 0.000000 0.000000
vn 0.000000 0.000000 0.000000
vn 0.000000 0.000000 0.000000
vn 0.000000 0.000000 0.000000
vn -1.000000 0.000000 0.000000
vn -1.000000 0.000000 0.000000
vn -1.000000 0.000000 0.000000
vn -1.000000 0.000000 0.000000
vn 0.000000 -1.000000 0.000000
vn 0.000000 -1.000000 0.000000
vn 0.000000 -1.000000 0.000000
vn 0.000000 -1.000000 0.000000
vn 1.000000 0.000000 0.000000
vn 1.000000 0.000000 0.000000
vn 1.000000 0.000000 0.000000
vn 1.000000 0.000000 0.000000
vn 0.000000 -1.000000 0.000000
vn 0.000000 -1.000000 0.000000
vn 0.000000 -1.000000 0.000000
vn 0.000000 -1.000000 0.000000
vn 0.000000 1.000000 0.000000
vn 0.000000 1.000000 0.000000
vn 0.000000 1.000000 0.000000
vn 0.000000 1.000000 0.000000
vn -1.000000 0.000000 0.000000
vn -1.000000 0.000000 0.000000
vn -1.000000 0.000000 0.000000
vn -1.000000 0.000000 0.000000
vn 0.000000 -1.000000 0.000000
vn 0.000000 -1.000000 0.000000
vn 0.000000 -1.000000 0.000000
vn 0.000000 -1.000000 0.000000
vn 1.000000 0.000000 0.000000
vn 1.000000 0.000000 0.000000
vn 1.000000 0.000000 0.000000
vn 1.000000 0.000000 0.000000
vn 0.000000 1.000000 0.000000
vn 0.000000 1.000000 0.000000
vn 0.000000 1.000000 0.000000
vn 0.000000 1.000000 0.000000
s 1
g converyor_belt
usemtl initialShadingGroup
f 1/1/1 14/21/2 15/23/3 3/3/4
s 2
f 33/41/5 34/42/6 35/43/7 36/44/8
s 3
f 5/5/9 16/24/10 13/20/11 7/7/12
s 4
f 7/7/13 13/20/14 14/22/15 1/9/16
s 5
f 18/25/17 17/26/18 19/27/19 20/28/20
s 6
f 21/29/21 22/30/22 23/31/23 24/32/24
s 4
f 9/15/25 8/8/26 2/10/27 10/17/28
s 8
f 11/18/29 10/16/30 2/2/31 4/4/32
s 2
f 38/48/33 37/45/34 39/46/35 40/47/36
s 3
f 9/15/37 12/19/38 6/6/39 8/8/40
s 4
f 13/20/14 9/15/25 10/17/28 14/22/15
s 9
f 92/101/41 91/102/42 93/103/43 94/104/44
s 2
f 35/43/7 34/42/6 37/45/34 38/48/33
s 3
f 13/20/11 16/24/10 12/19/38 9/15/37
s 4
f 2/2/27 8/11/26 17/26/45 18/25/46
s off
f 58/67/47 57/68/48 59/69/49 60/70/50
s 2
f 40/55/36 39/46/35 41/49/51 42/50/52
s 8
f 4/4/32 2/2/31 18/25/53 20/28/54
s 4
f 7/13/13 1/1/16 22/30/55 21/29/56
s 1
f 1/1/1 3/3/4 23/31/57 22/30/58
s 2
f 33/41/5 36/56/8 43/51/59 44/52/60
s off
f 61/71/61 62/72/62 63/73/63 64/74/64
s 10
f 8/11/65 6/12/66 25/34/67 26/33/68
s 2
f 40/55/36 42/50/52 45/53/69 46/54/70
s 5
f 19/27/19 17/26/18 28/36/71 27/35/72
s 4
f 17/26/45 8/11/26 26/33/73 28/36/74
s 11
f 5/14/75 7/13/76 30/38/77 29/37/78
s 4
f 7/13/13 21/29/56 31/39/79 30/38/80
s 6
f 21/29/21 24/32/24 32/40/81 31/39/82
s 2
f 43/51/59 36/56/8 47/57/83 48/58/84
s 9
f 95/105/85 92/101/41 96/106/86 97/107/87
s 12
f 16/24/88 5/5/89 36/44/90 35/43/91
s 9
f 94/104/44 98/108/92 99/109/93 100/110/94
s 12
f 6/6/95 12/19/96 38/48/97 40/47/98
s 9
f 92/101/41 94/104/44 100/110/94 96/106/86
s 12
f 12/19/96 16/24/88 35/43/91 38/48/97
s 8
f 4/4/32 20/28/54 41/49/99 39/46/100
s 5
f 20/28/20 19/27/19 42/50/101 41/49/102
s 6
f 24/32/24 23/31/23 44/52/103 43/51/104
s 1
f 23/31/57 3/3/4 33/41/105 44/52/106
s 5
f 19/27/19 27/35/72 45/53/107 42/50/101
s off
f 27/35/108 25/34/109 46/54/110 45/53/111
s 10
f 25/34/67 6/12/66 40/55/112 46/54/113
s 11
f 5/14/75 29/37/78 47/57/114 36/56/115
s off
f 29/37/116 32/40/117 48/58/118 47/57/119
s 6
f 32/40/81 24/32/24 43/51/104 48/58/120
s 10
f 26/33/68 25/34/67 49/60/121 50/59/122
s off
f 25/34/123 27/35/124 51/61/125 49/60/126
s 5
f 27/35/72 28/36/71 52/62/127 51/61/128
s 4
f 28/36/74 26/33/73 50/59/129 52/62/130
s 11
f 29/37/78 30/38/77 54/64/131 53/63/132
s 4
f 30/38/80 31/39/79 55/65/133 54/64/134
s 6
f 31/39/82 32/40/81 56/66/135 55/65/136
s off
f 32/40/137 29/37/138 53/63/139 56/66/140
s 10
f 50/59/122 49/60/121 57/68/141 58/67/142
s off
f 83/93/143 84/94/144 85/95/145 86/96/146
s 5
f 51/61/128 52/62/127 60/70/147 59/69/148
s 4
f 52/62/130 50/59/129 58/67/149 60/70/150
s 11
f 53/63/132 54/64/131 62/72/151 61/71/152
s 4
f 54/64/134 55/65/133 63/73/153 62/72/154
s 6
f 55/65/136 56/66/135 64/74/155 63/73/156
s off
f 88/97/157 87/98/158 89/99/159 90/100/160
f 49/60/161 51/61/162 66/76/163 65/75/164
s 5
f 51/61/128 59/69/148 67/77/165 66/76/166
s off
f 59/69/167 57/68/168 68/78/169 67/77/170
s 10
f 57/68/141 49/60/121 65/75/171 68/78/172
s off
f 56/66/173 53/63/174 69/80/175 70/79/176
s 11
f 53/63/132 61/71/152 71/81/177 69/80/178
s off
f 61/71/179 64/74/180 72/82/181 71/81/182
s 6
f 64/74/155 56/66/135 70/79/183 72/82/184
s off
f 15/23/185 14/21/186 73/84/187 74/83/188
f 14/21/189 10/16/190 75/85/191 73/84/192
f 10/16/193 11/18/194 76/86/195 75/85/196
f 3/3/197 15/23/198 74/83/199 77/87/200
f 34/42/201 33/41/202 79/89/203 78/88/204
f 33/41/205 3/3/206 77/87/207 79/89/208
f 11/18/209 4/4/210 80/90/211 76/86/212
f 4/4/213 39/46/214 81/91/215 80/90/216
f 39/46/217 37/45/218 82/92/219 81/91/220
f 37/45/221 34/42/222 78/88/223 82/92/224
f 65/75/225 66/76/226 84/94/227 83/93/228
f 66/76/229 67/77/230 85/95/231 84/94/232
f 67/77/233 68/78/234 86/96/235 85/95/236
f 68/78/237 65/75/238 83/93/239 86/96/240
f 70/79/241 69/80/242 87/98/243 88/97/244
f 69/80/245 71/81/246 89/99/247 87/98/248
f 71/81/249 72/82/250 90/100/251 89/99/252
f 72/82/253 70/79/254 88/97/255 90/100/256
f 74/83/257 73/84/258 91/102/259 92/101/260
f 73/84/261 75/85/262 93/103/263 91/102/264
f 75/85/265 76/86/266 94/104/267 93/103/268
f 77/87/269 74/83/270 92/101/271 95/105/272
s 13
f 78/88/273 79/89/274 97/107/275 96/106/276
s off
f 79/89/277 77/87/278 95/105/279 97/107/280
f 76/86/281 80/90/282 98/108/283 94/104/284
f 80/90/285 81/91/286 99/109/287 98/108/288
s 13
f 81/91/289 82/92/290 100/110/291 99/109/292
f 82/92/290 78/88/273 96/106/276 100/110/291
